<svg id="Layer_1" data-name="Layer 1" xmlns="http://www.w3.org/2000/svg" viewBox="0 0 266.72 59"><defs><style>.cls-1{fill:#7730e1;}.cls-2{fill:#dbdf24;}.cls-3{fill:#eee;}</style></defs><title>default_w</title><rect class="cls-1" width="59" height="59" rx="15"/><g id="bdce1298-0ac2-48b8-be39-abfc0ba08e69"><path class="cls-2" d="M68.27,127.88c-2.69,0-6.09,1.75-9.32,4.06l-6.7,6.66L44,137.82l.9-.9a.31.31,0,0,0,0-.44l-.82-.81a.3.3,0,0,0-.44,0h0l-1.94,1.93-4.24-.4,1-1a.33.33,0,0,0,0-.45l-.82-.81a.31.31,0,0,0-.44,0h0l-2,2-7-.65-2.21,2.37,7.55,2.35,6.6,2.44,4.46,2.81-6.27,6.24a82.72,82.72,0,0,0-5.18,7.73l-8-.62-1,1,6.72,3.83c-.4.78-.63,1.25-.63,1.25s.47-.21,1.25-.6l3.69,7,.94-.95-.36-8.34a77.66,77.66,0,0,0,7.76-5.13l6.25-6.27,2.64,4.14,2.5,6.44,2.53,8.07,2.3-2.27-.73-8,1.56-1.56a.34.34,0,0,0,0-.46l-.82-.8a.3.3,0,0,0-.43,0h0l-.52.52-.28-3,2.06-2.07a.31.31,0,0,0,0-.44h0l-.82-.82a.31.31,0,0,0-.44,0h0l-1,1-.79-8.55,6.84-6.87C66.52,133.71,68.27,130.41,68.27,127.88Z" transform="translate(-16.64 -120.5)"/></g><g id="_1faec586-34df-45a1-ad8e-eb5958df7421" data-name="1faec586-34df-45a1-ad8e-eb5958df7421"><path class="cls-3" d="M101.67,138.72v-3.38H87.92V161h3.49V150.55h7.3v-3.38h-7.3v-8.45Zm5,7.09v-3.14h-3.46V161h3.46v-9.87l0,.15c0-3.95,2.67-5.34,5.28-4.92V142.3A6.13,6.13,0,0,0,106.67,145.81Zm15.68-3.4c-5.39,0-9,4.32-9,9.42s3.51,9.45,9.35,9.45a10.51,10.51,0,0,0,6.23-1.83V156a10.31,10.31,0,0,1-6,2,5.69,5.69,0,0,1-6-4.74h14C131.33,147.43,128.06,142.41,122.35,142.41Zm-.08,3.45c2.65,0,4.51,1.84,5,4.51H117A5.33,5.33,0,0,1,122.27,145.86Zm26.58-3.19v2.93a7.67,7.67,0,0,0-6.26-3.19c-5.11,0-8.59,4.13-8.59,9.42s3.48,9.43,8.59,9.43a7.68,7.68,0,0,0,6.26-3.2V161h3.45V142.67Zm-5.69,15.24c-3.29,0-5.6-2.7-5.6-6.08s2.31-6,5.6-6a6.07,6.07,0,0,1,0,12.12ZM173.43,161l-8.67-9.06,8.17-9.27h-4.21l-7.52,8.69V131.67h-3.45V161h3.45v-8.43L169,161Zm15.47-18.33L183.32,157l-5.6-14.29H174l7.64,18.17-3.24,7.49h3.53l10.73-25.66Zm20.81-3.95v-3.38H196V161h3.48V150.55h7.31v-3.38h-7.31v-8.45Zm3,22.28h3.46V131.67h-3.46Zm20.9-18.33L228,157l-5.6-14.29h-3.75l7.65,18.17-3.25,7.49h3.54l10.73-25.66Zm13.66-.26c-5.36,0-9,4.32-9,9.42s3.54,9.45,9.35,9.45a10.38,10.38,0,0,0,6.23-1.83V156a10.22,10.22,0,0,1-6,2,5.71,5.71,0,0,1-6-4.74h14C256.26,147.43,253,142.41,247.28,142.41Zm-.05,3.45c2.62,0,4.5,1.84,5,4.51H241.92A5.31,5.31,0,0,1,247.23,145.86Zm16.31-.05v-3.14h-3.46V161h3.46v-9.87l0,.15c0-3.95,2.67-5.34,5.28-4.92V142.3A6.13,6.13,0,0,0,263.54,145.81ZM277,161.28c3.82,0,6.36-2.27,6.39-5.26,0-6.39-8.8-5.18-8.77-8.48,0-1.1,1-1.83,2.38-1.83a6.25,6.25,0,0,1,3.82,1.8l2-2.54a7.91,7.91,0,0,0-5.87-2.59c-3.58,0-5.89,2.31-5.89,5.08-.05,6.23,8.72,4.92,8.72,8.48,0,1.21-1.15,2-2.67,2a6.75,6.75,0,0,1-4.45-2.12l-2.15,2.56A9.34,9.34,0,0,0,277,161.28Z" transform="translate(-16.64 -120.5)"/></g></svg>