<svg id="Layer_1" data-name="Layer 1" xmlns="http://www.w3.org/2000/svg" viewBox="0 0 300 300"><defs><style>.cls-1{fill:#7730e1;}.cls-2{fill:#dbdf24;}</style></defs><title>isolated-layout</title><rect class="cls-1" width="300" height="300" rx="15"/><g id="bdce1298-0ac2-48b8-be39-abfc0ba08e69"><path class="cls-2" d="M262.5,37.5c-13.65,0-31,8.91-47.39,20.69L181.08,92,139,88.08l4.57-4.57a1.58,1.58,0,0,0,0-2.25l-4.15-4.15a1.58,1.58,0,0,0-2.23,0l0,0L127.29,87l-21.59-2L110.62,80a1.67,1.67,0,0,0,0-2.33l-4.14-4.08a1.58,1.58,0,0,0-2.23,0l0,0L94,83.87,58.38,80.56l-11.25,12,38.39,12,33.54,12.38,22.71,14.29L109.85,163a421.26,421.26,0,0,0-26.3,39.32l-40.92-3.16-5.13,5.13,34.17,19.5c-2,4-3.16,6.33-3.16,6.33s2.37-1.07,6.33-3L93.61,262.5l4.78-4.78-1.83-42.43A394.75,394.75,0,0,0,136,189.19l31.78-31.87,13.43,21,12.72,32.79,12.87,41,11.68-11.54-3.73-40.52,7.94-7.95a1.67,1.67,0,0,0,0-2.33l-4.14-4.08a1.59,1.59,0,0,0-2.24,0v0l-2.68,2.67-1.41-15.19,10.48-10.49a1.58,1.58,0,0,0,0-2.24h0l-4.15-4.15a1.58,1.58,0,0,0-2.23,0l0,0-5.2,5.21-4-43.48,34.81-34.9C253.62,67.16,262.5,50.41,262.5,37.5Z" transform="translate(0 0)"/></g></svg>