<svg id="Layer_4" data-name="Layer 4" xmlns="http://www.w3.org/2000/svg" viewBox="0 0 300 300"><defs><style>.cls-1{fill:#7730e1;}</style></defs><title>boardingpass</title><path class="cls-1" d="M145.23,259.61v10h39.94a5,5,0,0,0,3.53-1.47l11.45-11.45,11.45,11.45a5,5,0,0,0,3.53,1.47H275a25,25,0,0,0,25-25V164.75a25,25,0,0,0-25-25h-10v10h10a15,15,0,0,1,15,15v79.88a15,15,0,0,1-15,15H217.19L203.68,246.1a5,5,0,0,0-7.06,0l-13.51,13.51Z" transform="translate(0 0)"/><path class="cls-1" d="M25,270h5V260H25a15,15,0,0,1-15-15v-7.93l54.39,54.39a29.15,29.15,0,0,0,41.22,0L195,202.07V210h10V195h-2.93l26.47-26.47A5,5,0,0,0,230,165V150h15a5,5,0,0,0,3.54-1.47l42.92-42.92a29.15,29.15,0,0,0,0-41.22L235.61,8.53a29.17,29.17,0,0,0-41.22,0L151.46,51.46A5,5,0,0,0,150,55V70H135a5,5,0,0,0-3.54,1.46L10,192.93V165a15,15,0,0,1,15-15H45V140H25A25,25,0,0,0,0,165v80A25,25,0,0,0,25,270Zm-9.39-68.54L137.07,80H155a5,5,0,0,0,5-5V57.07l41.46-41.46a19.6,19.6,0,0,1,27.08,0l55.85,55.85a19.13,19.13,0,0,1,0,27.07L242.93,140H225a5,5,0,0,0-5,5v17.93L98.54,284.39a19.58,19.58,0,0,1-27.07,0L15.61,228.53A19.13,19.13,0,0,1,15.61,201.46Z" transform="translate(0 0)"/><path class="cls-1" d="M195.16,219.67h10v15h-10Z" transform="translate(0 0)"/><path class="cls-1" d="M220.12,229.66h25v10h-25Z" transform="translate(0 0)"/><path class="cls-1" d="M255.07,229.66h25v10h-25Z" transform="translate(0 0)"/><path class="cls-1" d="M220.12,209.69H280v10H220.12Z" transform="translate(0 0)"/><path class="cls-1" d="M220.12,189.72H280v10H220.12Z" transform="translate(0 0)"/><path class="cls-1" d="M235.1,169.75H280v10H235.1Z" transform="translate(0 0)"/><path class="cls-1" d="M161.64,88.41l7.06-7.06,10,10-7.06,7Z" transform="translate(0 0)"/><path class="cls-1" d="M181.61,108.38l7.06-7.06,10,10-7.06,7Z" transform="translate(0 0)"/><path class="cls-1" d="M201.57,128.35l7.06-7.06,10,10-7.06,7.05Z" transform="translate(0 0)"/><path class="cls-1" d="M69.11,174.58l27.29,7-8.15,8.16H70.34a5,5,0,0,0-3.53,8.52l35,34.95a5,5,0,0,0,7.06,0,5,5,0,0,0,1.46-3.52V211.75l7.52-7.51L125.45,231a5,5,0,0,0,8.33,2.16l10-10a5,5,0,0,0,1.46-3.53V176.8l7.92-7.91a40.89,40.89,0,0,0,12-29.1,5,5,0,0,0-5-5,40.89,40.89,0,0,0-29.1,12l-7.92,7.92H80.33a5,5,0,0,0-3.53,1.46l-10,10a5,5,0,0,0,2.3,8.36Zm66.14,43-2.53,2.53-6.84-24,9.37-9.37Zm2.92-63.69a31,31,0,0,1,16.57-8.65,31,31,0,0,1-8.65,16.57l-44.33,44.33a5,5,0,0,0-1.46,3.53v7.91L82.4,199.7h7.91a5,5,0,0,0,3.53-1.46ZM82.4,164.75h30.81l-8.6,8.61-24.54-6.28Z" transform="translate(0 0)"/><path class="cls-1" d="M181.62,66.38l39.93-39.94,7.06,7.06L188.68,73.44Z" transform="translate(0 0)"/><path class="cls-1" d="M196.59,81.36l39.94-39.94,7.05,7.06L203.65,88.42Z" transform="translate(0 0)"/><path class="cls-1" d="M211.57,96.33,251.5,56.4l7.06,7.06-39.94,39.93Z" transform="translate(0 0)"/><path class="cls-1" d="M226.54,111.31l15-15,7.06,7-15,15Z" transform="translate(0 0)"/><path class="cls-1" d="M251.5,86.35l15-15,7,7.06-15,15Z" transform="translate(0 0)"/><path class="cls-1" d="M21.86,211.13l25-25,7,7.06-24.95,25Z" transform="translate(0 0)"/><path class="cls-1" d="M36.83,226.11l15-15,7,7.06-15,15Z" transform="translate(0 0)"/><path class="cls-1" d="M51.8,241.08l15-15,7.06,7.06-15,15Z" transform="translate(0 0)"/><path class="cls-1" d="M66.78,256.06l15-15,7.06,7-15,15Z" transform="translate(0 0)"/><path class="cls-1" d="M81.75,271l15-15,7.06,7.06-15,15Z" transform="translate(0 0)"/><path class="cls-1" d="M191.59,161.23l10-10,7.06,7.06-10,10Z" transform="translate(0 0)"/><path class="cls-1" d="M171.62,181.19l10-10,7.06,7.06-10,10Z" transform="translate(0 0)"/><path class="cls-1" d="M106.73,126.28l34.94-34.95,7.06,7.06-34.94,34.94Z" transform="translate(0 0)"/></svg>