<svg id="Layer_2" data-name="Layer 2" xmlns="http://www.w3.org/2000/svg" viewBox="0 0 300.19 300.21"><defs><style>.cls-1{fill:#7730e1;}</style></defs><title>hotelcart</title><path class="cls-1" d="M295.16,251.78H275.79V92a63,63,0,0,0-62.94-62.94H179V19.37a4.85,4.85,0,0,0-4.85-4.84h-5.45a19.37,19.37,0,0,0-37.51,0H125.7a4.85,4.85,0,0,0-4.85,4.84v9.69H87A63,63,0,0,0,24,92V251.78H4.65a4.84,4.84,0,0,0-4.84,4.84v14.52A4.84,4.84,0,0,0,4.65,276H37.41A14.53,14.53,0,1,0,59,276H240.77a14.53,14.53,0,1,0,21.63,0h32.76a4.84,4.84,0,0,0,4.84-4.84V256.62A4.84,4.84,0,0,0,295.16,251.78ZM149.91,9.69a9.68,9.68,0,0,1,8.37,4.84H141.54A9.66,9.66,0,0,1,149.91,9.69ZM130.54,24.21h38.73v4.85H130.54ZM33.7,92A53.32,53.32,0,0,1,87,38.74H212.85A53.32,53.32,0,0,1,266.11,92V251.78h-9.69V179.15a4.84,4.84,0,0,0-4.84-4.84h-11a9.68,9.68,0,0,0,1.31-4.84V121.05a4.84,4.84,0,0,0,4.84-4.84V101.68a4.84,4.84,0,0,0-4.84-4.84H217.69a4.84,4.84,0,0,0-9.68,0H183.8a4.84,4.84,0,0,0-4.84,4.84v14.53a4.84,4.84,0,0,0,4.84,4.84v48.42a9.58,9.58,0,0,0,1.31,4.84H179V140.42a4.85,4.85,0,0,0-4.85-4.85H159.59v-29a4.84,4.84,0,0,0-4.84-4.84H130.54V92a4.84,4.84,0,0,0-4.84-4.84H116V77.47a14.53,14.53,0,0,0-29.05,0v9.69H77.28A4.83,4.83,0,0,0,72.44,92v43.57H67.6a4.85,4.85,0,0,0-4.85,4.85V208.2H48.23A4.84,4.84,0,0,0,43.39,213v38.74H33.7ZM179,193.67V184h67.78v9.68Zm67.78,9.69v48.42H179V203.36h48.41a4.85,4.85,0,0,0,9.69,0Zm-14.52-82.31v48.42H193.48V121.05H208a4.84,4.84,0,0,0,9.68,0Zm-14.53-9.68v-4.85h19.37v4.85Zm-9.68,0H188.64v-4.85H208ZM111.17,208.2H72.44V169.47h72.62a4.85,4.85,0,0,0,9.69,0h14.52v82.31H116V213A4.84,4.84,0,0,0,111.17,208.2Zm-4.84,9.68v33.9H53.07v-33.9Zm-33.89-58.1V145.26h96.83v14.52Zm48.41-62.94v33.89H82.12V96.84Zm-24.2-9.68V77.47a4.84,4.84,0,1,1,9.68,0v9.69Zm33.89,43.57V111.37h19.37v19.36ZM48.23,290.51a4.84,4.84,0,1,1,4.84-4.84A4.84,4.84,0,0,1,48.23,290.51Zm203.35,0a4.84,4.84,0,1,1,4.84-4.84A4.84,4.84,0,0,1,251.58,290.51Zm38.74-24.21H9.49v-4.84H290.32Z" transform="translate(0.19)"/><path class="cls-1" d="M222.53,130.73H203.16a4.84,4.84,0,0,0-4.84,4.84v19.37a9.69,9.69,0,0,0,9.69,9.68h9.68a9.68,9.68,0,0,0,9.68-9.68V135.57A4.84,4.84,0,0,0,222.53,130.73Zm-4.84,24.21H208V140.42h9.68v14.52Z" transform="translate(0.19)"/></svg>