<svg id="Layer_3" data-name="Layer 3" xmlns="http://www.w3.org/2000/svg" viewBox="0 0 299.55 299.55"><defs><style>.cls-1{fill:#7730e1;}</style></defs><title>wallet</title><path class="cls-1" d="M286.38,151v-42.1a27.16,27.16,0,0,0-25.06-27l-39.1-68.29a26.93,26.93,0,0,0-37-10l-134,78H27.68A27.26,27.26,0,0,0,.45,108.93V272.32a27.26,27.26,0,0,0,27.23,27.23H259.15a27.25,27.25,0,0,0,27.23-27.23v-42.1A20.4,20.4,0,0,0,300,211.05V170.2A20.4,20.4,0,0,0,286.38,151ZM245.5,81.7H186.16l44.5-25.91ZM223.9,44,159.1,81.7H132.22l85-49.46ZM192.11,15.44a13.12,13.12,0,0,1,10.11-1.37,13.35,13.35,0,0,1,8.18,6.32v0L105.16,81.7H78.29Zm80.66,256.88a13.64,13.64,0,0,1-13.62,13.62H27.68a13.63,13.63,0,0,1-13.61-13.62V108.93A13.63,13.63,0,0,1,27.68,95.32H259.15a13.63,13.63,0,0,1,13.62,13.61v40.85H231.92a40.85,40.85,0,1,0,0,81.69h40.85v40.85Zm13.61-61.27a6.81,6.81,0,0,1-6.8,6.81H231.92a27.24,27.24,0,0,1,0-54.47h47.66a6.82,6.82,0,0,1,6.8,6.81Z" transform="translate(-0.45 0)"/><path class="cls-1" d="M231.92,177a13.62,13.62,0,1,0,13.62,13.62A13.63,13.63,0,0,0,231.92,177Z" transform="translate(-0.45 0)"/></svg>